<?xml version="1.0" encoding="utf-8"?><svg xmlns="http://www.w3.org/2000/svg" xmlns:xlink="http://www.w3.org/1999/xlink"><symbol fill="none" viewBox="0 0 32 32" id="icon-budilnik" xmlns="http://www.w3.org/2000/svg"><path d="M15.999 29.333c-6.628 0-12-5.372-12-12 0-6.627 5.372-12 12-12 6.627 0 12 5.373 12 12 0 6.628-5.373 12-12 12Zm0-2.666a9.333 9.333 0 1 0 0-18.667 9.333 9.333 0 0 0 0 18.667Zm1.333-9.334h4V20h-6.667v-9.333h2.667v6.666ZM2.328 8.377l4.714-4.714 1.886 1.885-4.714 4.714-1.886-1.885Zm22.628-4.714 4.714 4.714-1.886 1.885-4.714-4.714 1.886-1.885Z" fill="#27AE60"/></symbol><symbol fill="none" viewBox="0 0 28 27" id="icon-client" xmlns="http://www.w3.org/2000/svg"><g clip-path="url(#ba)"><path d="M20.986 6.763h5.556v2.223h-5.556V6.763Zm-2.222 5.556h7.778v2.222h-7.778V12.32Zm3.334 5.556h4.444v2.222h-4.445v-2.222Zm-20 5.555a8.89 8.89 0 0 1 17.777 0h-2.222a6.667 6.667 0 0 0-13.333 0H2.098Zm8.888-10A6.665 6.665 0 0 1 4.32 6.763 6.665 6.665 0 0 1 10.986.097a6.665 6.665 0 0 1 6.667 6.666 6.665 6.665 0 0 1-6.667 6.667Zm0-2.222a4.443 4.443 0 0 0 4.445-4.445 4.443 4.443 0 0 0-4.445-4.444 4.443 4.443 0 0 0-4.444 4.444 4.443 4.443 0 0 0 4.444 4.445Z" fill="#27AE60"/></g><defs><clipPath id="ba"><path fill="#fff" transform="translate(.892 .097)" d="M0 0h26.667v26.667H0z"/></clipPath></defs></symbol><symbol fill="none" viewBox="0 0 24 24" id="icon-facebook" xmlns="http://www.w3.org/2000/svg"><g clip-path="url(#ca)"><path d="M12 2C6.477 2 2 6.477 2 12c0 4.991 3.657 9.128 8.438 9.879V14.89h-2.54V12h2.54V9.797c0-2.506 1.492-3.89 3.777-3.89 1.094 0 2.238.195 2.238.195v2.46h-1.26c-1.243 0-1.63.771-1.63 1.562V12h2.773l-.443 2.89h-2.33v6.989C18.343 21.129 22 16.99 22 12c0-5.523-4.477-10-10-10Z" fill="#fff"/></g><defs><clipPath id="ca"><path fill="#fff" d="M0 0h24v24H0z"/></clipPath></defs></symbol><symbol fill="none" viewBox="0 0 24 24" id="icon-fillstar" xmlns="http://www.w3.org/2000/svg"><g clip-path="url(#da)"><path d="m12 18.26-5.161 2.89a1 1 0 0 1-1.47-1.068l1.153-5.802-4.343-4.016a1 1 0 0 1 .561-1.727l5.874-.697 2.478-5.372a1 1 0 0 1 1.816 0l2.478 5.372 5.874.697a1 1 0 0 1 .561 1.727l-4.343 4.016 1.153 5.802a1 1 0 0 1-1.47 1.067L12 18.26Z" fill="#27AE60"/></g><defs><clipPath id="da"><path fill="#fff" d="M0 0h24v24H0z"/></clipPath></defs></symbol><symbol fill="none" viewBox="0 0 32 32" id="icon-star" xmlns="http://www.w3.org/2000/svg"><path d="M4.14 30.82a1.299 1.299 0 0 1-1.27-1.52l.46-2.66-1.94-1.88a1.3 1.3 0 0 1 .72-2.21l2.67-.39L6 19.75a1.3 1.3 0 0 1 2.32 0l1.19 2.42 2.67.39a1.3 1.3 0 0 1 .72 2.21l-1.93 1.88.46 2.66a1.3 1.3 0 0 1-1.88 1.37l-2.42-1.27-2.38 1.26c-.188.1-.397.15-.61.15Zm2.99-3.5c.21 0 .415.052.6.15l1.45.76-.28-1.62a1.29 1.29 0 0 1 .37-1.15l1.17-1.14-1.62-.24a1.29 1.29 0 0 1-1-.71L7.1 21.9l-.73 1.47a1.29 1.29 0 0 1-1 .71l-1.62.24L5 25.47a1.29 1.29 0 0 1 .37 1.15l-.28 1.61 1.45-.76c.182-.096.384-.147.59-.15Zm18.65-5.06a1.6 1.6 0 0 1-.72-.18l-5.15-2.71-5.15 2.71a1.58 1.58 0 0 1-2.28-1.69l1-5.71-.77-.75a1 1 0 0 1 0-1.41 1 1 0 0 1 1.41 0l.94.91a1.56 1.56 0 0 1 .44 1.43l-.86 5.07 4.59-2.42a1.58 1.58 0 0 1 1.48 0l4.59 2.42-.88-5.12a1.57 1.57 0 0 1 .47-1.41l3.68-3.6L23.4 9a1.59 1.59 0 0 1-1.2-.88l-2.29-4.6-2.29 4.65a1.63 1.63 0 0 1-1.18.83l-5.15.74.34.34a1 1 0 1 1-1.42 1.41l-.93-.92A1.59 1.59 0 0 1 8.9 9a1.57 1.57 0 0 1 1.26-1.07l5.76-.83 2.58-5.23a1.58 1.58 0 0 1 2.83 0l2.57 5.22 5.74.84A1.55 1.55 0 0 1 30.92 9a1.58 1.58 0 0 1-.4 1.64l-4.15 4.06 1 5.72a1.59 1.59 0 0 1-1.57 1.86l-.02-.02Z" fill="#27AE60"/></symbol><symbol fill="none" viewBox="0 0 32 32" id="icon-target" xmlns="http://www.w3.org/2000/svg"><path d="M16 26.667c5.89 0 10.666-4.776 10.666-10.667S21.89 5.333 15.999 5.333C10.11 5.333 5.333 10.11 5.333 16s4.775 10.667 10.666 10.667Zm0 2.666c-7.364 0-13.334-5.97-13.334-13.333 0-7.364 5.97-13.333 13.333-13.333 7.364 0 13.334 5.97 13.334 13.333 0 7.364-5.97 13.333-13.334 13.333Zm0-8a5.333 5.333 0 1 0 0-10.666 5.333 5.333 0 0 0 0 10.666ZM16 24a8 8 0 1 1 0-16 8 8 0 0 1 0 16Zm0-5.333a2.667 2.667 0 1 1 0-5.333 2.667 2.667 0 0 1 0 5.333Z" fill="#27AE60"/></symbol><symbol fill="none" viewBox="0 0 32 32" id="icon-time" xmlns="http://www.w3.org/2000/svg"><g clip-path="url(#ga)"><path d="M16 2.667c7.364 0 13.334 5.97 13.334 13.333 0 7.364-5.97 13.333-13.334 13.333S2.667 23.364 2.667 16h2.667c0 5.89 4.776 10.667 10.666 10.667 5.891 0 10.667-4.776 10.667-10.667 0-5.89-4.776-10.667-10.667-10.667a10.645 10.645 0 0 0-8.18 3.82L10.667 12h-8V4L5.93 7.261A13.306 13.306 0 0 1 16 2.667Zm1.334 6.666v6.114l4.324 4.324-1.887 1.886-5.104-5.106V9.333h2.667Z" fill="#27AE60"/></g><defs><clipPath id="ga"><path fill="#fff" d="M0 0h32v32H0z"/></clipPath></defs></symbol><symbol fill="none" viewBox="0 0 24 24" id="icon-vcontacte" xmlns="http://www.w3.org/2000/svg"><g clip-path="url(#ha)"><path d="M12 .48C5.638.48.48 5.638.48 12c0 6.363 5.158 11.52 11.52 11.52 6.362 0 11.52-5.157 11.52-11.52C23.52 5.639 18.362.48 12 .48Zm4.43 12.998s1.02 1.005 1.27 1.472c.007.01.01.02.013.024.102.172.126.305.076.405-.084.165-.372.247-.47.254h-1.8c-.125 0-.387-.032-.704-.25-.243-.171-.483-.45-.717-.723-.35-.406-.652-.756-.957-.756a.365.365 0 0 0-.114.018c-.23.074-.525.403-.525 1.279 0 .274-.216.43-.369.43h-.824c-.281 0-1.744-.098-3.04-1.465-1.586-1.674-3.014-5.031-3.026-5.062-.09-.218.096-.334.299-.334H7.36c.242 0 .321.148.376.278.065.153.303.759.693 1.44.632 1.112 1.02 1.563 1.33 1.563a.36.36 0 0 0 .167-.043c.406-.226.33-1.672.312-1.972 0-.056 0-.647-.208-.93-.15-.205-.402-.283-.556-.312a.66.66 0 0 1 .239-.203c.278-.139.78-.16 1.278-.16h.277c.54.008.68.043.875.092.396.095.404.35.37 1.225-.011.248-.022.53-.022.86 0 .072-.004.15-.004.23-.012.446-.026.951.288 1.159a.26.26 0 0 0 .137.04c.11 0 .438 0 1.328-1.528.275-.492.514-1.003.714-1.529.018-.031.071-.127.134-.164a.319.319 0 0 1 .148-.035h2.138c.232 0 .392.035.422.125.053.142-.01.578-.985 1.9l-.436.574c-.884 1.16-.884 1.218.055 2.098Z" fill="#fff"/></g><defs><clipPath id="ha"><path fill="#fff" d="M0 0h24v24H0z"/></clipPath></defs></symbol><symbol fill="none" viewBox="0 0 24 24" id="icon-viber" xmlns="http://www.w3.org/2000/svg"><g clip-path="url(#ia)"><path d="m2.004 22 1.352-4.968A9.954 9.954 0 0 1 2 12C2 6.477 6.477 2 12 2s10 4.477 10 10-4.477 10-10 10a9.953 9.953 0 0 1-5.03-1.355L2.004 22ZM8.391 7.308a.961.961 0 0 0-.371.1 1.293 1.293 0 0 0-.294.228c-.12.113-.188.211-.261.306A2.729 2.729 0 0 0 6.9 9.62c.002.49.13.967.33 1.413.409.902 1.082 1.857 1.971 2.742.214.213.423.427.648.626a9.448 9.448 0 0 0 3.84 2.046l.569.087c.185.01.37-.004.556-.013a1.99 1.99 0 0 0 .833-.231 4.83 4.83 0 0 0 .383-.22s.043-.028.125-.09c.135-.1.218-.171.33-.288.083-.086.155-.187.21-.302.078-.163.156-.474.188-.733.024-.198.017-.306.014-.373-.004-.107-.093-.218-.19-.265l-.582-.261s-.87-.379-1.401-.621a.498.498 0 0 0-.177-.041.482.482 0 0 0-.378.127v-.002c-.005 0-.072.057-.795.933a.35.35 0 0 1-.368.13 1.418 1.418 0 0 1-.191-.066c-.124-.052-.167-.072-.252-.109l-.005-.002a6.011 6.011 0 0 1-1.57-1c-.126-.11-.243-.23-.363-.346a6.298 6.298 0 0 1-1.02-1.268l-.059-.095a.923.923 0 0 1-.102-.205c-.038-.147.061-.265.061-.265s.243-.266.356-.41a4.38 4.38 0 0 0 .263-.373c.118-.19.155-.385.093-.536-.28-.684-.57-1.365-.868-2.041-.059-.134-.234-.23-.393-.249a4.439 4.439 0 0 0-.162-.016 3.385 3.385 0 0 0-.403.004v.001Z" fill="#fff"/></g><defs><clipPath id="ia"><path fill="#fff" d="M0 0h24v24H0z"/></clipPath></defs></symbol><symbol fill="none" viewBox="0 0 24 24" id="icon-x" xmlns="http://www.w3.org/2000/svg"><g clip-path="url(#ja)"><path d="m12 10.586 4.243-4.243a1 1 0 1 1 1.414 1.414L13.414 12l4.243 4.243a1 1 0 1 1-1.414 1.414L12 13.414l-4.243 4.243a1 1 0 1 1-1.414-1.414L10.586 12 6.343 7.757a1 1 0 1 1 1.414-1.414L12 10.586Z" fill="#1D1D1B"/></g><defs><clipPath id="ja"><path fill="#fff" d="M0 0h24v24H0z"/></clipPath></defs></symbol><symbol fill="none" viewBox="0 0 209 82" id="logo" xmlns="http://www.w3.org/2000/svg"><path d="M88.232 59.255c.21.262.315.59.315.98 0 .554-.205.984-.613 1.29-.408.307-1 .461-1.775.461h-2.64a.35.35 0 0 1-.351-.352v-5.618a.35.35 0 0 1 .35-.35h2.47c.709 0 1.261.14 1.658.423.396.284.595.684.595 1.201 0 .332-.08.617-.239.858a1.49 1.49 0 0 1-.689.55c.402.11.709.295.919.557Zm-3.91-.89h1.567c.38 0 .667-.075.865-.226.199-.15.298-.373.298-.668 0-.295-.1-.52-.298-.672-.199-.154-.487-.231-.865-.231h-1.568v1.797Zm3.045 1.78c0-.614-.414-.921-1.244-.921H84.32v1.86h1.802c.83 0 1.244-.313 1.244-.939Zm7.168-1.83c-.404-.338-.986-.509-1.743-.509h-1.748V55.96a.292.292 0 0 0-.292-.293h-.57a.292.292 0 0 0-.292.293v5.733c0 .163.13.293.292.293h2.42c.804 0 1.43-.183 1.874-.555.445-.371.667-.904.667-1.604 0-.667-.202-1.172-.608-1.512Zm-.933 2.452c-.245.21-.597.316-1.053.316h-1.505V58.7h1.505c.948 0 1.423.382 1.423 1.147 0 .404-.123.71-.37.92Zm3.604-4.807v5.733a.292.292 0 0 1-.292.293h-.57a.292.292 0 0 1-.292-.293V55.96c0-.163.131-.293.292-.293h.57c.16 0 .292.13.292.293ZM76.71 59.128v.572c0 .16-.13.292-.292.292H53.85a.292.292 0 0 1-.291-.292v-.572c0-.16.129-.292.291-.292h22.568c.163 0 .292.131.292.292Zm114.004 0v.572a.291.291 0 0 1-.291.292h-22.568a.293.293 0 0 1-.293-.292v-.572c0-.16.131-.292.293-.292h22.568a.29.29 0 0 1 .291.292Zm-86.66.127c.21.262.315.59.315.98 0 .554-.204.984-.613 1.29-.408.307-1 .46-1.775.46h-2.604a.388.388 0 0 1-.388-.388v-5.542c0-.215.174-.389.388-.389h2.432c.709 0 1.262.142 1.658.424.396.283.595.683.595 1.201 0 .332-.079.617-.238.858-.159.24-.389.424-.69.55.403.109.709.294.92.556Zm-3.911-.89h1.568c.379 0 .667-.075.865-.226.199-.15.298-.373.298-.668 0-.295-.099-.52-.298-.672-.198-.154-.487-.231-.865-.231h-1.568v1.797Zm3.046 1.78c0-.614-.414-.921-1.244-.921h-1.802v1.86h1.802c.829 0 1.244-.313 1.244-.939Zm3.693 1.512a3.106 3.106 0 0 1-1.216-1.165 3.207 3.207 0 0 1-.441-1.665c0-.614.147-1.17.441-1.666.294-.497.7-.886 1.216-1.165a3.594 3.594 0 0 1 1.739-.42c.643 0 1.223.14 1.739.42.517.28.922.666 1.217 1.16.294.494.442 1.05.442 1.67 0 .62-.147 1.178-.442 1.671-.295.493-.7.88-1.217 1.16a3.59 3.59 0 0 1-1.739.42c-.642 0-1.222-.14-1.739-.42Zm2.875-.894a2.06 2.06 0 0 0 .793-.795c.192-.34.288-.72.288-1.143 0-.42-.096-.801-.288-1.142a2.06 2.06 0 0 0-.793-.795 2.273 2.273 0 0 0-1.136-.284c-.42 0-.799.095-1.135.284-.337.19-.601.455-.793.795-.192.34-.288.721-.288 1.142 0 .422.096.802.288 1.143.192.34.456.605.793.795.336.19.715.284 1.135.284.422 0 .799-.094 1.136-.284Zm7.582-1.489c.214.267.32.582.32.943 0 .38-.123.71-.37.99-.246.279-.575.495-.987.645-.411.15-.86.226-1.347.226a4.73 4.73 0 0 1-1.265-.176 4.202 4.202 0 0 1-.998-.419.239.239 0 0 1-.095-.302l.184-.416a.237.237 0 0 1 .332-.113 3.522 3.522 0 0 0 1.697.442c.474 0 .87-.093 1.185-.28.315-.186.473-.442.473-.767a.704.704 0 0 0-.343-.633c-.228-.144-.543-.216-.946-.216h-1.191a.277.277 0 0 1-.277-.278v-.365c0-.154.124-.278.277-.278h1.101c.276 0 .504-.045.685-.135a.78.78 0 0 0 .383-.957.802.802 0 0 0-.351-.398c-.267-.162-.608-.243-1.022-.243-.283 0-.574.04-.875.122a3.345 3.345 0 0 0-.592.22.267.267 0 0 1-.364-.146l-.169-.434a.274.274 0 0 1 .142-.347c.255-.118.521-.21.8-.277a4.645 4.645 0 0 1 1.085-.132c.469 0 .899.073 1.293.217.393.144.707.35.941.618.234.268.352.583.352.944 0 .313-.084.587-.253.822a1.6 1.6 0 0 1-.65.522c-.016.007-.015.028.002.034.358.12.639.31.843.567Zm9.924 2.428-.009-3.904-1.989 3.328a.285.285 0 0 1-.245.139h-.2a.284.284 0 0 1-.244-.138l-1.99-3.276v3.85a.285.285 0 0 1-.285.286h-.538a.285.285 0 0 1-.285-.286v-5.749c0-.158.127-.286.285-.286h.517c.1 0 .193.053.244.139l2.413 4.042 2.386-4.04a.285.285 0 0 1 .245-.14h.508c.157 0 .284.127.285.284l.017 5.749a.287.287 0 0 1-.286.287h-.546a.286.286 0 0 1-.283-.285Zm7.897-6.036a.24.24 0 0 1 .211.356l-2.548 4.746c-.241.452-.528.79-.861 1.016a1.895 1.895 0 0 1-1.085.339c-.235 0-.468-.038-.7-.112a.245.245 0 0 1-.16-.305l.149-.48a.243.243 0 0 1 .289-.16c.151.037.283.055.394.055.379 0 .691-.195.937-.587l.099-.154-2.325-4.358a.241.241 0 0 1 .213-.355h.702c.09 0 .174.051.215.133l1.798 3.578 1.852-3.58a.243.243 0 0 1 .214-.131h.606Zm2.326 5.991a3.098 3.098 0 0 1-1.207-1.16 3.226 3.226 0 0 1-.437-1.67c0-.62.147-1.177.441-1.671a3.12 3.12 0 0 1 1.213-1.16 3.544 3.544 0 0 1 1.725-.42c.516 0 .988.09 1.414.271.311.132.586.306.827.524a.347.347 0 0 1-.002.504l-.263.248a.347.347 0 0 1-.462.009 2.185 2.185 0 0 0-1.461-.525c-.432 0-.819.094-1.162.284-.343.19-.61.453-.802.79-.192.337-.288.72-.288 1.146 0 .428.096.81.288 1.148.192.338.459.6.802.79.343.19.73.284 1.162.284a2.17 2.17 0 0 0 1.459-.53.344.344 0 0 1 .465.01l.264.251a.346.346 0 0 1 0 .503 2.913 2.913 0 0 1-.832.525 3.64 3.64 0 0 1-1.419.271 3.582 3.582 0 0 1-1.725-.422Zm6.366 0a3.1 3.1 0 0 1-1.216-1.165 3.199 3.199 0 0 1-.442-1.665c0-.614.147-1.17.442-1.666a3.1 3.1 0 0 1 1.216-1.165 3.59 3.59 0 0 1 1.739-.42c.643 0 1.222.14 1.739.42.516.28.922.666 1.217 1.16a3.21 3.21 0 0 1 .441 1.67 3.2 3.2 0 0 1-.441 1.671 3.13 3.13 0 0 1-1.217 1.16c-.517.28-1.096.42-1.739.42s-1.223-.14-1.739-.42Zm2.874-.894c.337-.19.601-.455.793-.795.192-.34.289-.72.289-1.143 0-.42-.097-.801-.289-1.142a2.053 2.053 0 0 0-.793-.795 2.269 2.269 0 0 0-1.135-.284c-.421 0-.8.095-1.136.284-.336.19-.6.455-.793.795-.192.34-.288.721-.288 1.142 0 .422.096.802.288 1.143.193.34.457.605.793.795.336.19.715.284 1.136.284.42 0 .799-.094 1.135-.284Zm7.582-4.827c.406.181.716.44.933.777.216.337.324.737.324 1.201 0 .458-.108.857-.324 1.197-.217.34-.528.6-.933.781-.405.18-.881.272-1.428.272h-1.424v1.504a.318.318 0 0 1-.318.319h-.535a.318.318 0 0 1-.318-.319v-5.682c0-.176.142-.319.318-.319h2.277c.546 0 1.023.089 1.428.27Zm-.32 2.908c.264-.217.396-.527.396-.93 0-.402-.132-.713-.396-.93-.265-.216-.653-.324-1.163-.324h-1.369v2.51h1.369c.511 0 .898-.11 1.163-.326Zm6.552 1.68h-3.154l-.544 1.28a.303.303 0 0 1-.276.183h-.545a.302.302 0 0 1-.275-.425l2.567-5.72a.305.305 0 0 1 .275-.177h.765a.3.3 0 0 1 .274.177l2.576 5.719a.301.301 0 0 1-.274.425h-.563a.302.302 0 0 1-.276-.182l-.55-1.28Zm-.389-.922-1.188-2.763-1.18 2.763h2.368Z" fill="#A8A8A8"/><path d="m172.989 46.455-6.315-14.021a1.177 1.177 0 0 0-1.07-.693h-1.918c-.461 0-.881.273-1.07.693l-6.295 14.021a1.173 1.173 0 0 0 1.069 1.66h1.418c.474 0 .896-.28 1.081-.715l1.212-2.849h7.049l1.23 2.855c.186.43.61.71 1.078.71h1.463a1.174 1.174 0 0 0 1.068-1.66Zm-10.512-5.117 2.148-5.024 2.161 5.024h-4.309Z" fill="#1D1D1B"/><path d="M68.558 45.301c0 .324-.138.64-.374.862a7.595 7.595 0 0 1-2.28 1.476c-1.103.462-2.33.696-3.647.696-1.627 0-3.117-.363-4.436-1.082a8.221 8.221 0 0 1-1.779-1.297 8.06 8.06 0 0 1-1.349-1.71c-.75-1.271-1.133-2.725-1.133-4.318 0-1.593.387-3.046 1.146-4.32a8.105 8.105 0 0 1 3.14-3.005c1.316-.717 2.808-1.082 4.435-1.082 1.319 0 2.54.235 3.636.7a7.6 7.6 0 0 1 2.267 1.47c.238.226.374.54.374.866 0 .326-.131.63-.37.853l-.856.809a1.165 1.165 0 0 1-1.578.028c-.944-.84-2.036-1.249-3.342-1.249-.966 0-1.84.214-2.599.633a4.528 4.528 0 0 0-1.768 1.743c-.424.742-.64 1.601-.64 2.554 0 .953.216 1.811.64 2.556a4.541 4.541 0 0 0 1.768 1.741c.759.42 1.633.633 2.6.633 1.301 0 2.393-.412 3.337-1.26a1.172 1.172 0 0 1 1.585.03l.86.82c.235.225.365.527.363.853Zm15.785-12.383V46.94c0 .647-.527 1.175-1.175 1.175h-1.43a1.176 1.176 0 0 1-1.172-1.175V35.13H73.56v11.81c0 .648-.526 1.176-1.174 1.176h-1.43a1.178 1.178 0 0 1-1.174-1.175V32.918c0-.649.529-1.177 1.175-1.177h12.212a1.178 1.178 0 0 1 1.175 1.177ZM98.86 45.926v1.014c0 .647-.526 1.175-1.174 1.175H87.54a1.176 1.176 0 0 1-1.175-1.175V32.918c0-.649.527-1.177 1.175-1.177h9.84c.648 0 1.175.528 1.175 1.177v1.014c0 .65-.527 1.177-1.175 1.177h-7.194v3.036h6.25c.646 0 1.174.528 1.174 1.177v.97c0 .65-.528 1.178-1.174 1.178h-6.25v3.279h7.5c.649 0 1.175.527 1.175 1.177Zm17.822-.023v4.426c0 .649-.527 1.177-1.174 1.177h-1.255a1.178 1.178 0 0 1-1.175-1.177v-2.214h-11.87a1.178 1.178 0 0 1-1.175-1.175V32.918c0-.649.529-1.177 1.175-1.177h1.429c.648 0 1.175.528 1.175 1.177v11.809h6.786V32.918c0-.649.527-1.177 1.175-1.177h1.449c.648 0 1.175.528 1.175 1.177v11.809h1.111c.647 0 1.174.527 1.174 1.176Z" fill="#27AE60"/><path d="M143.499 32.918v1.035c0 .649-.526 1.176-1.174 1.176h-3.92v11.81c0 .648-.526 1.176-1.174 1.176h-1.452a1.176 1.176 0 0 1-1.172-1.175V35.13h-3.899a1.177 1.177 0 0 1-1.175-1.176v-1.035c0-.649.527-1.177 1.175-1.177h11.617c.648 0 1.174.527 1.174 1.176Zm-15.731 5.107h-7.552c-.645 0-1.173.529-1.173 1.175v1.455c0 .65.527 1.177 1.173 1.177h7.552a.923.923 0 0 0 .922-.923v-1.96a.923.923 0 0 0-.922-.924Zm29.944-3.509a5.22 5.22 0 0 0-1.054-1.196 6.115 6.115 0 0 0-1.428-.878c-1.047-.465-2.284-.7-3.678-.7h-5.632c-.648 0-1.175.527-1.175 1.176V46.94c0 .647.527 1.175 1.175 1.175h1.472c.648 0 1.175-.528 1.175-1.175v-3.271h2.986c1.394 0 2.631-.235 3.678-.701 1.071-.478 1.909-1.179 2.484-2.086.575-.905.866-1.972.866-3.176 0-1.22-.291-2.291-.869-3.19Zm-2.975 3.19c0 .838-.257 1.455-.787 1.892-.553.451-1.404.683-2.528.683h-2.854v-5.15h2.854c1.123 0 1.975.23 2.528.684.529.434.787 1.053.787 1.892Zm33.958-4.788V46.94c0 .647-.528 1.175-1.175 1.175h-1.473a1.176 1.176 0 0 1-1.174-1.175v-5.428h-6.985v5.428c0 .647-.526 1.175-1.173 1.175h-1.474a1.177 1.177 0 0 1-1.175-1.175V32.918c0-.649.528-1.177 1.175-1.177h1.474c.647 0 1.173.528 1.173 1.177v5.184h6.985v-5.184c0-.649.526-1.177 1.174-1.177h1.473a1.178 1.178 0 0 1 1.175 1.177Zm15.952 12.383c0 .324-.137.64-.373.862a7.625 7.625 0 0 1-2.282 1.476c-1.101.462-2.328.696-3.646.696-1.627 0-3.117-.363-4.436-1.082a8.043 8.043 0 0 1-3.128-3.007c-.75-1.271-1.132-2.725-1.132-4.318 0-1.593.385-3.046 1.145-4.32a8.135 8.135 0 0 1 3.139-3.005c1.316-.717 2.809-1.082 4.436-1.082 1.319 0 2.541.235 3.637.7a7.618 7.618 0 0 1 2.267 1.47 1.2 1.2 0 0 1 .373.866c0 .326-.131.63-.37.853l-.855.809a1.167 1.167 0 0 1-1.579.028c-.944-.84-2.037-1.249-3.341-1.249-.968 0-1.841.214-2.6.633a4.515 4.515 0 0 0-1.767 1.743c-.424.742-.64 1.601-.64 2.554 0 .953.216 1.811.64 2.556a4.536 4.536 0 0 0 1.767 1.741c.759.42 1.632.633 2.6.633 1.302 0 2.394-.412 3.338-1.26a1.174 1.174 0 0 1 1.587.03l.857.82c.236.225.365.527.363.853Z" fill="#1D1D1B"/><path d="m39.63 28.844-3.032 1.245c-.742.305-.89 1.278-.285 1.805 5.965 5.195 8.171 13.28 5.464 20.757-2.972 8.2-10.927 13.143-19.77 12.316-8.514-.807-15.665-7.807-16.635-16.288-1.022-9.14 4.056-17.455 12.383-20.216a.647.647 0 0 1 .216-.031c.29 0 .711.104 1.032.176l.248.062c.495.114 1 .28 1.537.454 1.094.373 2.209.745 3.427.725 1.63-.032 3.374-.29 5.22-.755l.094-.032c.475-.114.96-.248 1.444-.403l.537-.166c.578-.176 1.146-.352 1.713-.528l.877-.258 9.504-2.813-.887-.786c-3.261-2.896-6.564-5.089-10.102-6.69C29.6 16.031 27 15.421 24.39 15.503c-4.014.155-7.181 2.058-9.69 5.812l-.113.166c3.767-1.025 12.3-2.39 22.227 2.253 0 0-15.076-2.843-23.217.848-.382.177-.753.373-1.115.58a6.6 6.6 0 0 0-.567.34C3.744 30.415-.93 39.753.328 49.277c1.404 10.692 9.565 18.975 20.318 20.63 1.156.176 2.3.268 3.447.268 4.54 0 8.956-1.344 12.743-3.764a24.386 24.386 0 0 0 8.926-10.175c4.276-9.157 2.215-20.129-4.97-27.176a1.09 1.09 0 0 0-1.162-.216Z" fill="#27AE60"/><path d="m31.253 55.988-.093 1.624s-.01 0-.023-.01c-.482-.346-8.104-5.83-12.358-9.424-.047-.035-.092-.081-.138-.115-1.092-.934-2.184-1.901-3.139-3.007-2.299-2.627-2.84-6.129-1.483-9.113 9.507 2.731 13.07 11.959 13.301 12.58-1.931-8.87-9.22-14.48-11.921-16.29l1.126-.07c2.575-.15 6.3-.022 8.932 2.812 1.76 1.912 3.173 4.09 4.081 6.313 1.979 4.804 1.99 9.908 1.715 14.7Z" fill="#27AE60"/></symbol><symbol fill="none" viewBox="0 0 112 44" id="logo-min" xmlns="http://www.w3.org/2000/svg"><path d="M47.282 31.796a.81.81 0 0 1 .169.525c0 .297-.11.528-.328.693-.22.164-.536.247-.952.247h-1.415a.188.188 0 0 1-.188-.19v-3.014c0-.104.085-.188.188-.188h1.324c.38 0 .676.076.888.228a.746.746 0 0 1 .319.644.816.816 0 0 1-.128.46.802.802 0 0 1-.37.296c.216.058.38.158.493.299Zm-2.096-.478h.84c.204 0 .358-.04.464-.121.107-.081.16-.2.16-.359 0-.158-.053-.279-.16-.36-.106-.083-.26-.125-.463-.125h-.84v.965Zm1.633.955c0-.33-.222-.494-.667-.494h-.966v.998h.966c.445 0 .666-.168.666-.504Zm3.841-.982c-.217-.181-.53-.273-.935-.273h-.937v-.99a.156.156 0 0 0-.156-.158h-.306a.156.156 0 0 0-.156.157v3.077c0 .087.07.157.156.157h1.298c.43 0 .766-.099 1.004-.298.238-.2.357-.485.357-.86 0-.359-.108-.63-.325-.812Zm-.5 1.316c-.132.113-.32.17-.565.17h-.807v-1.28h.807c.508 0 .763.206.763.616 0 .217-.066.381-.199.494Zm1.931-2.58v3.077c0 .087-.07.157-.156.157h-.306a.156.156 0 0 1-.156-.157v-3.077c0-.087.07-.157.156-.157h.306c.086 0 .156.07.156.157Zm-10.983 1.7v.307c0 .086-.07.157-.157.157H28.858a.156.156 0 0 1-.157-.157v-.307c0-.086.07-.157.157-.157H40.95c.087 0 .157.071.157.157Zm61.094 0v.307a.156.156 0 0 1-.156.157H89.952a.157.157 0 0 1-.157-.157v-.307c0-.086.07-.157.157-.157h12.094c.087 0 .156.07.156.157Zm-46.442.069c.114.14.17.316.17.525 0 .297-.11.528-.329.693-.218.164-.535.247-.95.247h-1.396a.208.208 0 0 1-.208-.209v-2.974c0-.115.093-.208.208-.208h1.303c.38 0 .676.076.888.227a.746.746 0 0 1 .32.645c0 .177-.043.33-.128.46a.803.803 0 0 1-.37.295c.216.058.38.158.493.299Zm-2.095-.478h.84c.204 0 .358-.04.464-.121.107-.081.16-.2.16-.359 0-.158-.053-.279-.16-.36-.106-.083-.26-.125-.463-.125h-.84v.965Zm1.632.955c0-.33-.221-.494-.666-.494h-.966v.998h.966c.444 0 .666-.168.666-.504Zm1.98.811a1.662 1.662 0 0 1-.652-.625 1.72 1.72 0 0 1-.236-.894c0-.329.078-.627.236-.893.158-.267.375-.476.652-.626.277-.15.587-.225.932-.225.344 0 .655.075.932.225a1.677 1.677 0 0 1 .888 1.519 1.672 1.672 0 0 1-.889 1.519 1.92 1.92 0 0 1-.931.225c-.345 0-.655-.075-.932-.225Zm1.54-.48c.18-.102.322-.244.425-.426.103-.182.155-.387.155-.613 0-.226-.052-.43-.155-.613a1.104 1.104 0 0 0-.425-.427 1.216 1.216 0 0 0-.608-.152c-.226 0-.429.05-.609.152s-.322.244-.425.427a1.225 1.225 0 0 0-.154.613c0 .226.051.43.154.613.103.182.245.325.425.426.18.102.383.153.609.153.225 0 .428-.05.608-.153Zm4.063-.799a.789.789 0 0 1 .172.507c0 .203-.066.38-.198.53a1.28 1.28 0 0 1-.53.347c-.22.08-.46.12-.721.12-.225 0-.452-.03-.678-.093a2.257 2.257 0 0 1-.535-.225.129.129 0 0 1-.05-.162l.098-.224a.126.126 0 0 1 .178-.06 1.886 1.886 0 0 0 .91.237c.253 0 .465-.05.634-.15.169-.1.254-.237.254-.412a.378.378 0 0 0-.184-.34c-.123-.077-.291-.115-.507-.115h-.639a.149.149 0 0 1-.148-.15v-.195c0-.083.066-.15.148-.15h.59c.148 0 .27-.024.368-.072a.419.419 0 0 0 .205-.514.43.43 0 0 0-.188-.213 1.041 1.041 0 0 0-.548-.13 1.828 1.828 0 0 0-.786.184.143.143 0 0 1-.195-.08l-.09-.232a.147.147 0 0 1 .076-.186 2.493 2.493 0 0 1 1.01-.22c.25 0 .481.04.692.117.211.077.38.188.505.332a.746.746 0 0 1 .188.506.737.737 0 0 1-.135.44.857.857 0 0 1-.349.28c-.008.005-.008.016.001.02a.942.942 0 0 1 .452.303Zm5.318 1.303-.005-2.095-1.066 1.786a.153.153 0 0 1-.131.075h-.107a.153.153 0 0 1-.131-.074l-1.066-1.758v2.066a.153.153 0 0 1-.153.153h-.288a.153.153 0 0 1-.153-.153v-3.085c0-.085.068-.153.153-.153h.276c.054 0 .104.028.132.074l1.292 2.169 1.279-2.168a.153.153 0 0 1 .132-.075h.272c.084 0 .152.068.153.153l.008 3.084a.153.153 0 0 1-.153.154h-.292a.153.153 0 0 1-.152-.153Zm4.232-3.238a.13.13 0 0 1 .113.19l-1.365 2.547a1.478 1.478 0 0 1-.461.545 1.016 1.016 0 0 1-.582.182c-.126 0-.25-.02-.375-.06a.132.132 0 0 1-.086-.163l.08-.258a.13.13 0 0 1 .155-.086c.08.02.152.03.211.03.203 0 .37-.105.502-.315l.053-.083-1.246-2.339a.13.13 0 0 1 .114-.19h.376a.13.13 0 0 1 .116.071l.964 1.92.992-1.92a.13.13 0 0 1 .114-.07l.325-.001Zm1.246 3.214a1.66 1.66 0 0 1-.647-.622 1.733 1.733 0 0 1-.234-.897c0-.332.079-.631.237-.896.157-.265.374-.473.65-.623a1.9 1.9 0 0 1 .924-.225c.277 0 .53.048.758.146.166.07.314.164.442.28a.186.186 0 0 1 0 .271l-.141.133a.186.186 0 0 1-.248.005 1.17 1.17 0 0 0-.783-.282c-.231 0-.439.051-.622.153a1.096 1.096 0 0 0-.43.424 1.22 1.22 0 0 0-.155.615c0 .23.052.434.155.616.103.18.246.322.43.423.183.102.39.153.622.153.301 0 .561-.095.782-.284a.184.184 0 0 1 .25.005l.14.135a.185.185 0 0 1 0 .27c-.129.117-.277.21-.445.281-.23.097-.484.146-.76.146a1.916 1.916 0 0 1-.925-.227Zm3.411 0a1.663 1.663 0 0 1-.651-.625 1.719 1.719 0 0 1-.237-.894c0-.33.079-.627.237-.893.157-.267.375-.476.651-.626.277-.15.588-.225.932-.225.345 0 .655.075.932.225.277.15.495.358.652.623.158.265.237.563.237.896 0 .333-.079.632-.237.897a1.673 1.673 0 0 1-.652.622 1.92 1.92 0 0 1-.932.225c-.344 0-.655-.075-.932-.225Zm1.54-.48c.181-.102.323-.244.426-.426.103-.182.154-.387.154-.613 0-.226-.051-.43-.154-.613a1.104 1.104 0 0 0-.425-.427 1.216 1.216 0 0 0-.609-.152c-.225 0-.428.05-.608.152s-.322.244-.425.427a1.226 1.226 0 0 0-.154.613c0 .226.051.43.154.613.103.182.245.325.425.426.18.102.383.153.608.153.226 0 .429-.05.609-.153Zm4.064-2.589c.218.097.384.236.5.417.116.18.174.395.174.644 0 .245-.058.46-.174.642a1.112 1.112 0 0 1-.5.42 1.866 1.866 0 0 1-.765.145h-.764v.807a.17.17 0 0 1-.17.171h-.287a.17.17 0 0 1-.17-.17v-3.05a.17.17 0 0 1 .17-.17h1.22a1.85 1.85 0 0 1 .766.144Zm-.172 1.56c.142-.116.213-.283.213-.499 0-.216-.071-.383-.213-.499-.141-.116-.35-.174-.623-.174h-.734v1.347h.734c.274 0 .482-.059.623-.175Zm3.511.901h-1.69l-.291.687a.162.162 0 0 1-.148.098h-.292a.162.162 0 0 1-.148-.228l1.376-3.069a.163.163 0 0 1 .147-.095h.41a.16.16 0 0 1 .147.095l1.38 3.069a.162.162 0 0 1-.146.228h-.302a.161.161 0 0 1-.148-.098l-.295-.687Zm-.208-.494-.637-1.483-.632 1.483h1.269Z" fill="#A8A8A8"/><path d="m92.703 24.927-3.385-7.523a.63.63 0 0 0-.573-.372h-1.028a.63.63 0 0 0-.573.372l-3.373 7.523a.63.63 0 0 0 .573.89h.76c.253 0 .48-.15.579-.383l.65-1.528h3.777l.659 1.532c.1.23.327.38.578.38h.784a.631.631 0 0 0 .572-.89Zm-5.633-2.745 1.15-2.696 1.159 2.696h-2.31Z" fill="#1D1D1B"/><path d="M36.738 24.308a.64.64 0 0 1-.2.462c-.35.331-.761.597-1.222.792a5.022 5.022 0 0 1-1.954.374c-.872 0-1.671-.195-2.378-.58a4.321 4.321 0 0 1-1.676-1.613c-.402-.683-.607-1.464-.607-2.318 0-.855.207-1.635.614-2.318a4.346 4.346 0 0 1 1.682-1.613c.706-.384 1.505-.58 2.377-.58a4.96 4.96 0 0 1 1.949.375c.457.194.866.46 1.215.79.127.12.2.289.2.464a.62.62 0 0 1-.199.458l-.458.433a.624.624 0 0 1-.845.016c-.506-.451-1.092-.67-1.791-.67-.518 0-.987.114-1.393.339a2.428 2.428 0 0 0-.948.935c-.227.398-.342.86-.342 1.37 0 .512.115.973.342 1.372.226.396.545.711.948.935.406.225.875.34 1.393.34.697 0 1.283-.222 1.788-.677a.627.627 0 0 1 .85.016l.46.44c.127.12.196.283.195.458Zm8.46-6.645v7.524a.63.63 0 0 1-.63.63h-.765a.63.63 0 0 1-.629-.63V18.85H39.42v6.337a.63.63 0 0 1-.629.631h-.766a.631.631 0 0 1-.63-.63v-7.524c0-.349.284-.632.63-.632h6.545a.63.63 0 0 1 .629.631Zm7.78 6.98v.544a.63.63 0 0 1-.63.63h-5.437a.63.63 0 0 1-.63-.63v-7.524c0-.348.283-.631.63-.631h5.273c.347 0 .63.283.63.631v.544a.631.631 0 0 1-.63.632H48.33v1.63h3.35a.63.63 0 0 1 .628.63v.521a.632.632 0 0 1-.629.632h-3.35v1.76h4.02a.63.63 0 0 1 .63.631Zm9.549-.012v2.375a.631.631 0 0 1-.63.631h-.672a.632.632 0 0 1-.629-.631v-1.188h-6.361a.631.631 0 0 1-.63-.63v-7.524c0-.349.284-.632.63-.632H55c.347 0 .63.283.63.631V24h3.636v-6.337a.63.63 0 0 1 .63-.631h.776c.347 0 .63.283.63.631V24h.595c.347 0 .63.283.63.631Z" fill="#27AE60"/><path d="M76.9 17.663v.555a.631.631 0 0 1-.629.632h-2.1v6.337a.63.63 0 0 1-.63.63h-.778a.63.63 0 0 1-.628-.63V18.85h-2.09a.631.631 0 0 1-.629-.631v-.555c0-.348.282-.632.63-.632h6.225a.63.63 0 0 1 .63.631Zm-8.431 2.741H64.42a.631.631 0 0 0-.628.63v.78a.63.63 0 0 0 .628.632h4.048a.494.494 0 0 0 .493-.495v-1.052a.494.494 0 0 0-.493-.495Zm16.046-1.884a2.8 2.8 0 0 0-.565-.64 3.276 3.276 0 0 0-.765-.472c-.561-.25-1.224-.376-1.97-.376h-3.02a.631.631 0 0 0-.629.631v7.524c0 .347.283.63.63.63h.789a.63.63 0 0 0 .63-.63v-1.755h1.6c.747 0 1.41-.126 1.97-.376.575-.256 1.023-.633 1.332-1.12.308-.485.464-1.058.464-1.704 0-.654-.156-1.229-.466-1.711Zm-1.594 1.713c0 .449-.138.78-.422 1.015-.296.242-.752.366-1.355.366h-1.53V18.85h1.53c.602 0 1.059.124 1.355.368.284.233.422.565.422 1.015Zm18.197-2.57v7.524a.63.63 0 0 1-.629.63h-.79a.63.63 0 0 1-.629-.63v-2.912h-3.743v2.912a.63.63 0 0 1-.629.63h-.789a.631.631 0 0 1-.63-.63v-7.524c0-.348.283-.631.63-.631h.79a.63.63 0 0 1 .628.631v2.782h3.743v-2.782a.63.63 0 0 1 .63-.631h.789a.63.63 0 0 1 .629.631Zm8.549 6.645a.638.638 0 0 1-.2.462c-.35.331-.761.597-1.222.792a5.023 5.023 0 0 1-1.954.374c-.872 0-1.67-.195-2.377-.58a4.316 4.316 0 0 1-1.677-1.614c-.402-.683-.606-1.463-.606-2.317 0-.855.206-1.635.613-2.318a4.367 4.367 0 0 1 1.682-1.613c.705-.384 1.505-.58 2.377-.58a4.97 4.97 0 0 1 1.95.375c.457.194.865.46 1.214.79a.637.637 0 0 1 .002.922l-.458.433a.625.625 0 0 1-.846.016c-.506-.451-1.092-.67-1.791-.67-.518 0-.986.114-1.393.339a2.418 2.418 0 0 0-.947.935 2.73 2.73 0 0 0-.343 1.37c0 .512.116.973.343 1.372.225.396.544.711.947.935.407.225.875.34 1.393.34.698 0 1.283-.222 1.789-.677a.628.628 0 0 1 .85.016l.46.44c.126.12.195.283.194.458Z" fill="#1D1D1B"/><path d="m21.237 15.477-1.625.669a.575.575 0 0 0-.153.968c3.197 2.787 4.379 7.126 2.928 11.138-1.592 4.4-5.856 7.052-10.595 6.608-4.562-.433-8.394-4.189-8.914-8.74-.547-4.904 2.174-9.366 6.636-10.847a.345.345 0 0 1 .116-.017c.155 0 .381.056.553.095l.133.033c.265.061.536.15.824.244.586.2 1.183.4 1.836.388.873-.016 1.808-.155 2.798-.405l.05-.017c.254-.06.514-.133.774-.216l.288-.089c.309-.094.613-.189.918-.283l.47-.139 5.092-1.51-.475-.421c-1.748-1.554-3.517-2.73-5.414-3.59-1.615-.743-3.008-1.07-4.407-1.027-2.15.083-3.848 1.104-5.192 3.119l-.06.089c2.017-.55 6.59-1.282 11.91 1.21 0 0-8.079-1.527-12.442.454a8.42 8.42 0 0 0-.597.31 3.526 3.526 0 0 0-.304.184C2.005 16.32-.499 21.33.175 26.44c.752 5.738 5.126 10.182 10.888 11.07.62.094 1.233.144 1.847.144 2.434 0 4.8-.721 6.83-2.02a13.08 13.08 0 0 0 4.783-5.46c2.29-4.913 1.187-10.8-2.663-14.582a.583.583 0 0 0-.623-.116Z" fill="#27AE60"/><path d="m16.748 30.042-.05.872s-.006 0-.012-.006c-.259-.185-4.343-3.128-6.623-5.057-.025-.018-.05-.043-.074-.061-.585-.501-1.17-1.02-1.682-1.614-1.232-1.41-1.521-3.288-.795-4.89 5.095 1.466 7.005 6.417 7.128 6.751-1.035-4.76-4.94-7.77-6.388-8.741l.603-.038c1.38-.08 3.376-.012 4.787 1.509.943 1.026 1.7 2.195 2.187 3.388 1.06 2.577 1.067 5.316.919 7.887Z" fill="#27AE60"/></symbol><symbol fill="none" viewBox="0 0 732 732" id="map-ellipse" xmlns="http://www.w3.org/2000/svg"><circle cx="366" cy="366" r="365.5" fill="#28AE60" fill-opacity=".2" stroke="#fff"/></symbol><symbol fill="none" viewBox="0 0 10 11" id="materials-arrow" xmlns="http://www.w3.org/2000/svg"><path d="M5 8.5.757 4.259 2.17 2.844 5 5.672l2.828-2.828 1.414 1.414L5 8.501Z" fill="#27AE60"/></symbol><symbol fill="none" viewBox="0 0 24 24" id="menu-btn" xmlns="http://www.w3.org/2000/svg"><path d="M3 5a1 1 0 0 1 1-1h16a1 1 0 1 1 0 2H4a1 1 0 0 1-1-1Zm0 7a1 1 0 0 1 1-1h16a1 1 0 1 1 0 2H4a1 1 0 0 1-1-1Zm0 7a1 1 0 0 1 1-1h16a1 1 0 1 1 0 2H4a1 1 0 0 1-1-1Z" fill="#1D1D1B"/></symbol><symbol fill="none" viewBox="0 0 28 24" id="tick" xmlns="http://www.w3.org/2000/svg"><path d="M2 13.892 11.191 22 26 2" stroke="#6D31D0" stroke-width="3" stroke-linecap="round" stroke-linejoin="round"/></symbol></svg>