<svg width="32" height="32" fill="none" xmlns="http://www.w3.org/2000/svg"><path d="M16 26.667c5.89 0 10.666-4.776 10.666-10.667S21.89 5.333 15.999 5.333C10.11 5.333 5.333 10.11 5.333 16s4.775 10.667 10.666 10.667zm0 2.666c-7.364 0-13.334-5.97-13.334-13.333 0-7.364 5.97-13.333 13.333-13.333 7.364 0 13.334 5.97 13.334 13.333 0 7.364-5.97 13.333-13.334 13.333zm0-8a5.333 5.333 0 100-10.666 5.333 5.333 0 000 10.666zM16 24a8 8 0 110-16 8 8 0 010 16zm0-5.333a2.667 2.667 0 110-5.333 2.667 2.667 0 010 5.333z" fill="#27AE60"/></svg>