<svg width="32" height="32" fill="none" xmlns="http://www.w3.org/2000/svg"><g clip-path="url(#clip0_998_870)"><path d="M16 2.667c7.364 0 13.334 5.97 13.334 13.333 0 7.364-5.97 13.333-13.334 13.333S2.667 23.364 2.667 16h2.667c0 5.89 4.776 10.667 10.666 10.667 5.891 0 10.667-4.776 10.667-10.667 0-5.89-4.776-10.667-10.667-10.667a10.645 10.645 0 00-8.18 3.82L10.667 12h-8V4L5.93 7.261A13.306 13.306 0 0116 2.667zm1.334 6.666v6.114l4.324 4.324-1.887 1.886-5.104-5.106V9.333h2.667z" fill="#27AE60"/></g><defs><clipPath id="clip0_998_870"><path fill="#fff" d="M0 0h32v32H0z"/></clipPath></defs></svg>