<svg width="24" height="24" fill="none" xmlns="http://www.w3.org/2000/svg"><g clip-path="url(#clip0_998_1060)"><path d="M12 .48C5.638.48.48 5.638.48 12c0 6.363 5.158 11.52 11.52 11.52 6.362 0 11.52-5.157 11.52-11.52C23.52 5.639 18.362.48 12 .48zm4.43 12.998s1.02 1.005 1.27 1.472c.007.01.01.02.013.024.102.172.126.305.076.405-.084.165-.372.247-.47.254h-1.8c-.125 0-.387-.032-.704-.25-.243-.171-.483-.45-.717-.723-.35-.406-.652-.756-.957-.756a.365.365 0 00-.114.018c-.23.074-.525.403-.525 1.279 0 .274-.216.43-.369.43h-.824c-.281 0-1.744-.098-3.04-1.465-1.586-1.674-3.014-5.031-3.026-5.062-.09-.218.096-.334.299-.334H7.36c.242 0 .321.148.376.278.065.153.303.759.693 1.44.632 1.112 1.02 1.563 1.33 1.563a.36.36 0 00.167-.043c.406-.226.33-1.672.312-1.972 0-.056 0-.647-.208-.93-.15-.205-.402-.283-.556-.312a.66.66 0 01.239-.203c.278-.139.78-.16 1.278-.16h.277c.54.008.68.043.875.092.396.095.404.35.37 1.225-.011.248-.022.53-.022.86 0 .072-.004.15-.004.23-.012.446-.026.951.288 1.159a.26.26 0 00.137.04c.11 0 .438 0 1.328-1.528.275-.492.514-1.003.714-1.529.018-.031.071-.127.134-.164a.319.319 0 01.148-.035h2.138c.232 0 .392.035.422.125.053.142-.01.578-.985 1.9l-.436.574c-.884 1.16-.884 1.218.055 2.098z" fill="#fff"/></g><defs><clipPath id="clip0_998_1060"><path fill="#fff" d="M0 0h24v24H0z"/></clipPath></defs></svg>