<svg width="28" height="27" fill="none" xmlns="http://www.w3.org/2000/svg"><g clip-path="url(#clip0_998_878)"><path d="M20.986 6.763h5.556v2.223h-5.556V6.763zm-2.222 5.556h7.778v2.222h-7.778V12.32zm3.334 5.556h4.444v2.222h-4.445v-2.222zm-20 5.555a8.89 8.89 0 0117.777 0h-2.222a6.667 6.667 0 00-13.333 0H2.098zm8.888-10A6.665 6.665 0 014.32 6.763 6.665 6.665 0 0110.986.097a6.665 6.665 0 016.667 6.666 6.665 6.665 0 01-6.667 6.667zm0-2.222a4.443 4.443 0 004.445-4.445 4.443 4.443 0 00-4.445-4.444 4.443 4.443 0 00-4.444 4.444 4.443 4.443 0 004.444 4.445z" fill="#27AE60"/></g><defs><clipPath id="clip0_998_878"><path fill="#fff" transform="translate(.892 .097)" d="M0 0h26.667v26.667H0z"/></clipPath></defs></svg>