<svg width="112" height="44" fill="none" xmlns="http://www.w3.org/2000/svg"><path d="M47.282 31.796a.81.81 0 01.169.525c0 .297-.11.528-.328.693-.22.164-.536.247-.952.247h-1.415a.188.188 0 01-.188-.19v-3.014c0-.104.085-.188.188-.188h1.324c.38 0 .676.076.888.228a.746.746 0 01.319.644.816.816 0 01-.128.46.802.802 0 01-.37.296c.216.058.38.158.493.299zm-2.096-.478h.84c.204 0 .358-.04.464-.121.107-.081.16-.2.16-.359 0-.158-.053-.279-.16-.36-.106-.083-.26-.125-.463-.125h-.84v.965zm1.633.955c0-.33-.222-.494-.667-.494h-.966v.998h.966c.445 0 .666-.168.666-.504zm3.841-.982c-.217-.181-.53-.273-.935-.273h-.937v-.99a.156.156 0 00-.156-.158h-.306a.156.156 0 00-.156.157v3.077c0 .087.07.157.156.157h1.298c.43 0 .766-.099 1.004-.298.238-.2.357-.485.357-.86 0-.359-.108-.63-.325-.812zm-.5 1.316c-.132.113-.32.17-.565.17h-.807v-1.28h.807c.508 0 .763.206.763.616 0 .217-.066.381-.199.494zm1.931-2.58v3.077c0 .087-.07.157-.156.157h-.306a.156.156 0 01-.156-.157v-3.077c0-.087.07-.157.156-.157h.306c.086 0 .156.07.156.157zm-10.983 1.7v.307c0 .086-.07.157-.157.157H28.858a.156.156 0 01-.157-.157v-.307c0-.086.07-.157.157-.157H40.95c.087 0 .157.071.157.157zm61.094 0v.307a.156.156 0 01-.156.157H89.952a.157.157 0 01-.157-.157v-.307c0-.086.07-.157.157-.157h12.094c.087 0 .156.07.156.157zm-46.442.069c.114.14.17.316.17.525 0 .297-.11.528-.329.693-.218.164-.535.247-.95.247h-1.396a.208.208 0 01-.208-.209v-2.974c0-.115.093-.208.208-.208h1.303c.38 0 .676.076.888.227a.746.746 0 01.32.645c0 .177-.043.33-.128.46a.803.803 0 01-.37.295c.216.058.38.158.493.299zm-2.095-.478h.84c.204 0 .358-.04.464-.121.107-.081.16-.2.16-.359 0-.158-.053-.279-.16-.36-.106-.083-.26-.125-.463-.125h-.84v.965zm1.632.955c0-.33-.221-.494-.666-.494h-.966v.998h.966c.444 0 .666-.168.666-.504zm1.98.811a1.662 1.662 0 01-.652-.625 1.72 1.72 0 01-.236-.894c0-.329.078-.627.236-.893.158-.267.375-.476.652-.626.277-.15.587-.225.932-.225.344 0 .655.075.932.225a1.677 1.677 0 01.888 1.519 1.672 1.672 0 01-.889 1.519 1.92 1.92 0 01-.931.225c-.345 0-.655-.075-.932-.225zm1.54-.48c.18-.102.322-.244.425-.426.103-.182.155-.387.155-.613 0-.226-.052-.43-.155-.613a1.104 1.104 0 00-.425-.427 1.216 1.216 0 00-.608-.152c-.226 0-.429.05-.609.152s-.322.244-.425.427a1.225 1.225 0 00-.154.613c0 .226.051.43.154.613.103.182.245.325.425.426.18.102.383.153.609.153.225 0 .428-.05.608-.153zm4.063-.799a.789.789 0 01.172.507c0 .203-.066.38-.198.53a1.28 1.28 0 01-.53.347c-.22.08-.46.12-.721.12-.225 0-.452-.03-.678-.093a2.257 2.257 0 01-.535-.225.129.129 0 01-.05-.162l.098-.224a.126.126 0 01.178-.06 1.886 1.886 0 00.91.237c.253 0 .465-.05.634-.15.169-.1.254-.237.254-.412a.378.378 0 00-.184-.34c-.123-.077-.291-.115-.507-.115h-.639a.149.149 0 01-.148-.15v-.195c0-.083.066-.15.148-.15h.59c.148 0 .27-.024.368-.072a.419.419 0 00.205-.514.43.43 0 00-.188-.213 1.041 1.041 0 00-.548-.13 1.828 1.828 0 00-.786.184.143.143 0 01-.195-.08l-.09-.232a.147.147 0 01.076-.186 2.493 2.493 0 011.01-.22c.25 0 .481.04.692.117.211.077.38.188.505.332a.746.746 0 01.188.506.737.737 0 01-.135.44.857.857 0 01-.349.28c-.008.005-.008.016.001.02a.942.942 0 01.452.303zm5.318 1.303l-.005-2.095-1.066 1.786a.153.153 0 01-.131.075h-.107a.153.153 0 01-.131-.074l-1.066-1.758v2.066a.153.153 0 01-.153.153h-.288a.153.153 0 01-.153-.153v-3.085c0-.085.068-.153.153-.153h.276c.054 0 .104.028.132.074l1.292 2.169 1.279-2.168a.153.153 0 01.132-.075h.272c.084 0 .152.068.153.153l.008 3.084a.153.153 0 01-.153.154h-.292a.153.153 0 01-.152-.153zm4.232-3.238a.13.13 0 01.113.19l-1.365 2.547a1.478 1.478 0 01-.461.545 1.016 1.016 0 01-.582.182c-.126 0-.25-.02-.375-.06a.132.132 0 01-.086-.163l.08-.258a.13.13 0 01.155-.086c.08.02.152.03.211.03.203 0 .37-.105.502-.315l.053-.083-1.246-2.339a.13.13 0 01.114-.19h.376a.13.13 0 01.116.071l.964 1.92.992-1.92a.13.13 0 01.114-.07l.325-.001zm1.246 3.214a1.66 1.66 0 01-.647-.622 1.733 1.733 0 01-.234-.897c0-.332.079-.631.237-.896.157-.265.374-.473.65-.623a1.9 1.9 0 01.924-.225c.277 0 .53.048.758.146.166.07.314.164.442.28a.186.186 0 010 .271l-.141.133a.186.186 0 01-.248.005 1.17 1.17 0 00-.783-.282c-.231 0-.439.051-.622.153a1.096 1.096 0 00-.43.424 1.22 1.22 0 00-.155.615c0 .23.052.434.155.616.103.18.246.322.43.423.183.102.39.153.622.153.301 0 .561-.095.782-.284a.184.184 0 01.25.005l.14.135a.185.185 0 010 .27c-.129.117-.277.21-.445.281-.23.097-.484.146-.76.146a1.916 1.916 0 01-.925-.227zm3.411 0a1.663 1.663 0 01-.651-.625 1.719 1.719 0 01-.237-.894c0-.33.079-.627.237-.893.157-.267.375-.476.651-.626.277-.15.588-.225.932-.225.345 0 .655.075.932.225.277.15.495.358.652.623.158.265.237.563.237.896 0 .333-.079.632-.237.897a1.673 1.673 0 01-.652.622 1.92 1.92 0 01-.932.225c-.344 0-.655-.075-.932-.225zm1.54-.48c.181-.102.323-.244.426-.426.103-.182.154-.387.154-.613 0-.226-.051-.43-.154-.613a1.104 1.104 0 00-.425-.427 1.216 1.216 0 00-.609-.152c-.225 0-.428.05-.608.152s-.322.244-.425.427a1.226 1.226 0 00-.154.613c0 .226.051.43.154.613.103.182.245.325.425.426.18.102.383.153.608.153.226 0 .429-.05.609-.153zm4.064-2.589c.218.097.384.236.5.417.116.18.174.395.174.644 0 .245-.058.46-.174.642a1.112 1.112 0 01-.5.42 1.866 1.866 0 01-.765.145h-.764v.807a.17.17 0 01-.17.171h-.287a.17.17 0 01-.17-.17v-3.05a.17.17 0 01.17-.17h1.22a1.85 1.85 0 01.766.144zm-.172 1.56c.142-.116.213-.283.213-.499 0-.216-.071-.383-.213-.499-.141-.116-.35-.174-.623-.174h-.734v1.347h.734c.274 0 .482-.059.623-.175zm3.511.901h-1.69l-.291.687a.162.162 0 01-.148.098h-.292a.162.162 0 01-.148-.228l1.376-3.069a.163.163 0 01.147-.095h.41a.16.16 0 01.147.095l1.38 3.069a.162.162 0 01-.146.228h-.302a.161.161 0 01-.148-.098l-.295-.687zm-.208-.494l-.637-1.483-.632 1.483h1.269z" fill="#A8A8A8"/><path d="M92.703 24.927l-3.385-7.523a.63.63 0 00-.573-.372h-1.028a.63.63 0 00-.573.372l-3.373 7.523a.63.63 0 00.573.89h.76c.253 0 .48-.15.579-.383l.65-1.528h3.777l.659 1.532c.1.23.327.38.578.38h.784a.631.631 0 00.572-.89zm-5.633-2.745l1.15-2.696 1.159 2.696h-2.31z" fill="#1D1D1B"/><path d="M36.738 24.308a.64.64 0 01-.2.462c-.35.331-.761.597-1.222.792a5.022 5.022 0 01-1.954.374c-.872 0-1.671-.195-2.378-.58a4.321 4.321 0 01-1.676-1.613c-.402-.683-.607-1.464-.607-2.318 0-.855.207-1.635.614-2.318a4.346 4.346 0 011.682-1.613c.706-.384 1.505-.58 2.377-.58a4.96 4.96 0 011.949.375c.457.194.866.46 1.215.79.127.12.2.289.2.464a.62.62 0 01-.199.458l-.458.433a.624.624 0 01-.845.016c-.506-.451-1.092-.67-1.791-.67-.518 0-.987.114-1.393.339a2.428 2.428 0 00-.948.935c-.227.398-.342.86-.342 1.37 0 .512.115.973.342 1.372.226.396.545.711.948.935.406.225.875.34 1.393.34.697 0 1.283-.222 1.788-.677a.627.627 0 01.85.016l.46.44c.127.12.196.283.195.458zm8.46-6.645v7.524a.63.63 0 01-.63.63h-.765a.63.63 0 01-.629-.63V18.85H39.42v6.337a.63.63 0 01-.629.631h-.766a.631.631 0 01-.63-.63v-7.524c0-.349.284-.632.63-.632h6.545a.63.63 0 01.629.631zm7.78 6.98v.544a.63.63 0 01-.63.63h-5.437a.63.63 0 01-.63-.63v-7.524c0-.348.283-.631.63-.631h5.273c.347 0 .63.283.63.631v.544a.631.631 0 01-.63.632H48.33v1.63h3.35a.63.63 0 01.628.63v.521a.632.632 0 01-.629.632h-3.35v1.76h4.02a.63.63 0 01.63.631zm9.549-.012v2.375a.631.631 0 01-.63.631h-.672a.632.632 0 01-.629-.631v-1.188h-6.361a.631.631 0 01-.63-.63v-7.524c0-.349.284-.632.63-.632H55c.347 0 .63.283.63.631V24h3.636v-6.337a.63.63 0 01.63-.631h.776c.347 0 .63.283.63.631V24h.595c.347 0 .63.283.63.631z" fill="#27AE60"/><path d="M76.9 17.663v.555a.631.631 0 01-.629.632h-2.1v6.337a.63.63 0 01-.63.63h-.778a.63.63 0 01-.628-.63V18.85h-2.09a.631.631 0 01-.629-.631v-.555c0-.348.282-.632.63-.632h6.225a.63.63 0 01.63.631zm-8.431 2.741H64.42a.631.631 0 00-.628.63v.78a.63.63 0 00.628.632h4.048a.494.494 0 00.493-.495v-1.052a.494.494 0 00-.493-.495zm16.046-1.884a2.8 2.8 0 00-.565-.64 3.276 3.276 0 00-.765-.472c-.561-.25-1.224-.376-1.97-.376h-3.02a.631.631 0 00-.629.631v7.524c0 .347.283.63.63.63h.789a.63.63 0 00.63-.63v-1.755h1.6c.747 0 1.41-.126 1.97-.376.575-.256 1.023-.633 1.332-1.12.308-.485.464-1.058.464-1.704 0-.654-.156-1.229-.466-1.711zm-1.594 1.713c0 .449-.138.78-.422 1.015-.296.242-.752.366-1.355.366h-1.53V18.85h1.53c.602 0 1.059.124 1.355.368.284.233.422.565.422 1.015zm18.197-2.57v7.524a.63.63 0 01-.629.63h-.79a.63.63 0 01-.629-.63v-2.912h-3.743v2.912a.63.63 0 01-.629.63h-.789a.631.631 0 01-.63-.63v-7.524c0-.348.283-.631.63-.631h.79a.63.63 0 01.628.631v2.782h3.743v-2.782a.63.63 0 01.63-.631h.789a.63.63 0 01.629.631zm8.549 6.645a.638.638 0 01-.2.462c-.35.331-.761.597-1.222.792a5.023 5.023 0 01-1.954.374c-.872 0-1.67-.195-2.377-.58a4.316 4.316 0 01-1.677-1.614c-.402-.683-.606-1.463-.606-2.317 0-.855.206-1.635.613-2.318a4.367 4.367 0 011.682-1.613c.705-.384 1.505-.58 2.377-.58a4.97 4.97 0 011.95.375c.457.194.865.46 1.214.79a.637.637 0 01.002.922l-.458.433a.625.625 0 01-.846.016c-.506-.451-1.092-.67-1.791-.67-.518 0-.986.114-1.393.339a2.418 2.418 0 00-.947.935 2.73 2.73 0 00-.343 1.37c0 .512.116.973.343 1.372.225.396.544.711.947.935.407.225.875.34 1.393.34.698 0 1.283-.222 1.789-.677a.628.628 0 01.85.016l.46.44c.126.12.195.283.194.458z" fill="#1D1D1B"/><path d="M21.237 15.477l-1.625.669a.575.575 0 00-.153.968c3.197 2.787 4.379 7.126 2.928 11.138-1.592 4.4-5.856 7.052-10.595 6.608-4.562-.433-8.394-4.189-8.914-8.74-.547-4.904 2.174-9.366 6.636-10.847a.345.345 0 01.116-.017c.155 0 .381.056.553.095l.133.033c.265.061.536.15.824.244.586.2 1.183.4 1.836.388.873-.016 1.808-.155 2.798-.405l.05-.017c.254-.06.514-.133.774-.216l.288-.089c.309-.094.613-.189.918-.283l.47-.139 5.092-1.51-.475-.421c-1.748-1.554-3.517-2.73-5.414-3.59-1.615-.743-3.008-1.07-4.407-1.027-2.15.083-3.848 1.104-5.192 3.119l-.06.089c2.017-.55 6.59-1.282 11.91 1.21 0 0-8.079-1.527-12.442.454a8.42 8.42 0 00-.597.31 3.526 3.526 0 00-.304.184C2.005 16.32-.499 21.33.175 26.44c.752 5.738 5.126 10.182 10.888 11.07.62.094 1.233.144 1.847.144 2.434 0 4.8-.721 6.83-2.02a13.08 13.08 0 004.783-5.46c2.29-4.913 1.187-10.8-2.663-14.582a.583.583 0 00-.623-.116z" fill="#27AE60"/><path d="M16.748 30.042l-.05.872s-.006 0-.012-.006c-.259-.185-4.343-3.128-6.623-5.057-.025-.018-.05-.043-.074-.061-.585-.501-1.17-1.02-1.682-1.614-1.232-1.41-1.521-3.288-.795-4.89 5.095 1.466 7.005 6.417 7.128 6.751-1.035-4.76-4.94-7.77-6.388-8.741l.603-.038c1.38-.08 3.376-.012 4.787 1.509.943 1.026 1.7 2.195 2.187 3.388 1.06 2.577 1.067 5.316.919 7.887z" fill="#27AE60"/></svg>